<svg xmlns="http://www.w3.org/2000/svg" viewBox="0 0 67.37 334.2"><defs><style>.cls-1{fill:#fff;}</style></defs><g id="Layer_2" data-name="Layer 2"><g id="Layer_1-2" data-name="Layer 1"><path class="cls-1" d="M62.85,0h0a4.52,4.52,0,0,0-4.52,4.53V19H9.06V4.53A4.53,4.53,0,0,0,4.53,0h0A4.53,4.53,0,0,0,0,4.53V329.68a4.52,4.52,0,0,0,4.53,4.52h0a4.52,4.52,0,0,0,4.53-4.52V262.25H57.84a3.91,3.91,0,0,0,.48-.05v67.48a4.52,4.52,0,0,0,4.52,4.52h0a4.52,4.52,0,0,0,4.52-4.52V4.53A4.52,4.52,0,0,0,62.85,0ZM9.06,122.29H58.32V159H9.06Zm49.26-10H9.06V75.63H58.32ZM9.06,168.94H58.32v36.75a3.91,3.91,0,0,0-.48-.05H9.06ZM58.32,29V65.67H9.06V29Zm-.48,223.31H9.06V215.6H57.84c.16,0,.32,0,.48,0v36.79A3.91,3.91,0,0,0,57.84,252.29Z"/></g></g></svg>